<svg xmlns="http://www.w3.org/2000/svg" viewBox="0 0 211.15 53.15"><defs><style>.cls-1{fill:#fff;}.cls-2{fill:#7e459a;}</style></defs><title>logo-branco</title><g id="Layer_2" data-name="Layer 2"><g id="Layer_1-2" data-name="Layer 1"><circle class="cls-1" cx="26.58" cy="26.58" r="26.58"/><path class="cls-2" d="M17.06,30.59a4.06,4.06,0,0,0-.53-2.21,1.81,1.81,0,0,0-1.64-.82V25.32a1.77,1.77,0,0,0,1.67-.87,4.82,4.82,0,0,0,.5-2.38v-3.5a7.41,7.41,0,0,1,.28-2.07,4.45,4.45,0,0,1,.87-1.66,4,4,0,0,1,1.49-1.08,5.46,5.46,0,0,1,2.17-.39,1.45,1.45,0,0,1,.84.23.92.92,0,0,1,.34.82q0,.19,0,.48a4.93,4.93,0,0,1-.12.67,8.86,8.86,0,0,0-1.21.08,2.57,2.57,0,0,0-1,.34,1.85,1.85,0,0,0-.68.73A2.63,2.63,0,0,0,19.75,18v4.61a5.81,5.81,0,0,1-.43,2.37,3,3,0,0,1-1.55,1.5,2.7,2.7,0,0,1,1.58,1.69,8.24,8.24,0,0,1,.4,2.65V35.2A2.5,2.5,0,0,0,20,36.43a2,2,0,0,0,.7.73,2.58,2.58,0,0,0,1,.34,8.61,8.61,0,0,0,1.18.08,6,6,0,0,1,.12.7,5,5,0,0,1,0,.51.79.79,0,0,1-.4.8,2.28,2.28,0,0,1-1,.19,5.16,5.16,0,0,1-2.21-.42A4.1,4.1,0,0,1,18,38.29a3.78,3.78,0,0,1-.76-1.45,6.16,6.16,0,0,1-.22-1.61Z"/><path class="cls-2" d="M36.09,35.23a6.2,6.2,0,0,1-.22,1.61,3.79,3.79,0,0,1-.76,1.45,4.11,4.11,0,0,1-1.42,1.07,5.17,5.17,0,0,1-2.21.42,2.27,2.27,0,0,1-1-.19.79.79,0,0,1-.4-.8,4.9,4.9,0,0,1,0-.51,5.79,5.79,0,0,1,.12-.7,8.72,8.72,0,0,0,1.16-.08,2.6,2.6,0,0,0,1-.34,2,2,0,0,0,.7-.73,2.51,2.51,0,0,0,.26-1.24V30.77a8.23,8.23,0,0,1,.4-2.65,2.69,2.69,0,0,1,1.58-1.69,3,3,0,0,1-1.55-1.5,5.81,5.81,0,0,1-.43-2.37V18a2.64,2.64,0,0,0-.25-1.24,1.86,1.86,0,0,0-.68-.73,2.58,2.58,0,0,0-1-.34,8.85,8.85,0,0,0-1.21-.08,4.8,4.8,0,0,1-.12-.67,4.71,4.71,0,0,1,0-.48.92.92,0,0,1,.34-.82,1.45,1.45,0,0,1,.84-.23,5.49,5.49,0,0,1,2.15.39,3.94,3.94,0,0,1,1.5,1.08,4.46,4.46,0,0,1,.87,1.66,7.41,7.41,0,0,1,.28,2.07v3.5a4.82,4.82,0,0,0,.5,2.38,1.77,1.77,0,0,0,1.67.87v2.23a1.81,1.81,0,0,0-1.64.82,4.06,4.06,0,0,0-.53,2.21Z"/><path class="cls-1" d="M64.08,20.7l.33,0h.14a2,2,0,0,1,1.08.3,1.34,1.34,0,0,1,.59,1,3.8,3.8,0,0,1,1.09-1A3,3,0,0,1,69,20.47a3.91,3.91,0,0,1,.61.05,2.8,2.8,0,0,1,.61.17,1.23,1.23,0,0,1,.47.33.8.8,0,0,1,.18.55,2.28,2.28,0,0,1-.21.9,5.16,5.16,0,0,1-.42.79,2.62,2.62,0,0,0-.73-.48,2.63,2.63,0,0,0-2.55.36,2,2,0,0,0-.5.56,1.28,1.28,0,0,0-.18.65V33H64.08Z"/><path class="cls-1" d="M74.12,27.29a5.12,5.12,0,0,0,1,3.06A3.43,3.43,0,0,0,78,31.52a5,5,0,0,0,1.3-.16,4.81,4.81,0,0,0,1-.38A3.08,3.08,0,0,0,81,30.5q.27-.26.46-.47a5.32,5.32,0,0,1,.51.78,1.54,1.54,0,0,1,.22.65.85.85,0,0,1-.13.43,1.66,1.66,0,0,1-.44.46,5.29,5.29,0,0,1-1.54.74,7.52,7.52,0,0,1-2.27.3A7.41,7.41,0,0,1,75.46,33a4.82,4.82,0,0,1-1.89-1.13,5.41,5.41,0,0,1-1.28-2,8.92,8.92,0,0,1-.47-3.09,7.6,7.6,0,0,1,.48-2.84,5.69,5.69,0,0,1,1.26-2,4.92,4.92,0,0,1,1.78-1.13,6,6,0,0,1,2.07-.36,5.37,5.37,0,0,1,2.28.44,4.27,4.27,0,0,1,1.55,1.19,4.91,4.91,0,0,1,.89,1.72,7.16,7.16,0,0,1,.29,2c0,.24,0,.49,0,.74a6.24,6.24,0,0,1-.07.72Zm6.1-1.67a5.59,5.59,0,0,0-.14-1.3,2.87,2.87,0,0,0-.48-1.06,2.32,2.32,0,0,0-.9-.72,3.23,3.23,0,0,0-1.37-.26,3,3,0,0,0-2.23.89,3.7,3.7,0,0,0-1,2.45Z"/><path class="cls-1" d="M85.48,20.7l.33,0H86a2,2,0,0,1,1.08.29,1.46,1.46,0,0,1,.61,1,4,4,0,0,1,1.38-1,5.06,5.06,0,0,1,2.21-.43,5.4,5.4,0,0,1,1.92.34,4.15,4.15,0,0,1,1.59,1.08,5.3,5.3,0,0,1,1.09,1.93,9.08,9.08,0,0,1,.4,2.91A9.36,9.36,0,0,1,95.78,30a5.53,5.53,0,0,1-1.25,2,4.41,4.41,0,0,1-1.71,1.07,5.75,5.75,0,0,1-1.82.31,4.33,4.33,0,0,1-2.22-.48A3.78,3.78,0,0,1,87.69,32v6.59H85.48Zm2.21,9.35a3.61,3.61,0,0,0,.42.46,3,3,0,0,0,.64.46,4.86,4.86,0,0,0,.86.36,3.31,3.31,0,0,0,1,.16,2.76,2.76,0,0,0,2.45-1.19,6.13,6.13,0,0,0,.81-3.45,8.94,8.94,0,0,0-.17-1.77,4.28,4.28,0,0,0-.55-1.43,2.75,2.75,0,0,0-1-1,3.23,3.23,0,0,0-1.58-.35,3.8,3.8,0,0,0-2.07.52,1.49,1.49,0,0,0-.82,1.25Z"/><path class="cls-1" d="M99.52,20.7l.33,0H100a2,2,0,0,1,1.08.3,1.34,1.34,0,0,1,.59,1,3.8,3.8,0,0,1,1.09-1,3,3,0,0,1,1.69-.48,3.91,3.91,0,0,1,.61.05,2.8,2.8,0,0,1,.61.17,1.23,1.23,0,0,1,.47.33.8.8,0,0,1,.18.55,2.28,2.28,0,0,1-.21.9,5.16,5.16,0,0,1-.42.79,2.62,2.62,0,0,0-.73-.48,2.63,2.63,0,0,0-2.55.36,2,2,0,0,0-.5.56,1.28,1.28,0,0,0-.18.65V33H99.52Z"/><path class="cls-1" d="M118.73,26.83a9.59,9.59,0,0,1-.31,2.46,5.94,5.94,0,0,1-1,2.1,5,5,0,0,1-1.79,1.46,5.89,5.89,0,0,1-2.66.55,6.09,6.09,0,0,1-2.63-.52,4.81,4.81,0,0,1-1.77-1.39,5.66,5.66,0,0,1-1-2.06,9.85,9.85,0,0,1-.31-2.51,8.29,8.29,0,0,1,.36-2.48,5.87,5.87,0,0,1,1.09-2A5.35,5.35,0,0,1,110.53,21a5.79,5.79,0,0,1,2.54-.52,5.92,5.92,0,0,1,2.59.52,4.85,4.85,0,0,1,1.76,1.39,5.69,5.69,0,0,1,1,2A9.15,9.15,0,0,1,118.73,26.83Zm-2.35,0a9,9,0,0,0-.14-1.6,4.47,4.47,0,0,0-.51-1.43,2.82,2.82,0,0,0-1-1A3.26,3.26,0,0,0,113,22.4a3.22,3.22,0,0,0-1.66.39,3,3,0,0,0-1.05,1,4.54,4.54,0,0,0-.56,1.43,7.65,7.65,0,0,0-.17,1.6,9.44,9.44,0,0,0,.14,1.63,4.55,4.55,0,0,0,.53,1.5,3.26,3.26,0,0,0,1,1.11,3,3,0,0,0,1.67.43,3.16,3.16,0,0,0,1.72-.43,3,3,0,0,0,1-1.09,4.77,4.77,0,0,0,.51-1.5A9.66,9.66,0,0,0,116.38,26.85Z"/><path class="cls-1" d="M129.9,32q-.21.21-.52.47a3.63,3.63,0,0,1-.74.47,5.37,5.37,0,0,1-1,.35,4.74,4.74,0,0,1-1.2.14,5.71,5.71,0,0,1-2-.34A4.31,4.31,0,0,1,122.86,32a5.19,5.19,0,0,1-1.13-2,9.14,9.14,0,0,1-.42-3,9.42,9.42,0,0,1,.42-3,5.82,5.82,0,0,1,1.12-2,4.48,4.48,0,0,1,1.64-1.19,5.1,5.1,0,0,1,2-.39,5,5,0,0,1,2.07.38,4.42,4.42,0,0,1,1.37,1,1.25,1.25,0,0,1,.6-.85,1.8,1.8,0,0,1,.91-.27h.29a1.53,1.53,0,0,1,.36.05V32.14a13.16,13.16,0,0,1-.27,2.83,5.13,5.13,0,0,1-1,2.1A4.28,4.28,0,0,1,129,38.38a7.9,7.9,0,0,1-2.89.46A8.61,8.61,0,0,1,124,38.6a6.28,6.28,0,0,1-1.5-.57,2.4,2.4,0,0,1-.67-.55.9.9,0,0,1-.2-.55,1.34,1.34,0,0,1,.3-.76,7.88,7.88,0,0,1,.53-.68,1.92,1.92,0,0,0,.34.3,5.76,5.76,0,0,0,.77.48,6,6,0,0,0,1.13.46,5,5,0,0,0,1.43.2,4.72,4.72,0,0,0,2-.35,2.67,2.67,0,0,0,1.15-1,3.73,3.73,0,0,0,.52-1.51,14.68,14.68,0,0,0,.12-1.94Zm-.05-8.26h0l-.4-.38a3.93,3.93,0,0,0-.62-.44,3.84,3.84,0,0,0-.87-.36,4,4,0,0,0-1.12-.14,2.81,2.81,0,0,0-2.34,1.11,5.37,5.37,0,0,0-.86,3.32,10.57,10.57,0,0,0,.16,1.88,4.33,4.33,0,0,0,.55,1.5,2.75,2.75,0,0,0,1,1,3.23,3.23,0,0,0,1.58.35,4.13,4.13,0,0,0,1.16-.16A4,4,0,0,0,129,31a1.84,1.84,0,0,0,.6-.55,1.12,1.12,0,0,0,.21-.63Z"/><path class="cls-1" d="M135.93,20.7l.33,0h.14a2,2,0,0,1,1.08.3,1.34,1.34,0,0,1,.59,1,3.8,3.8,0,0,1,1.09-1,3,3,0,0,1,1.69-.48,3.91,3.91,0,0,1,.61.05,2.8,2.8,0,0,1,.61.17,1.23,1.23,0,0,1,.47.33.8.8,0,0,1,.18.55,2.28,2.28,0,0,1-.21.9,5.16,5.16,0,0,1-.42.79,2.62,2.62,0,0,0-.73-.48,2.63,2.63,0,0,0-2.55.36,2,2,0,0,0-.5.56,1.28,1.28,0,0,0-.18.65V33h-2.21Z"/><path class="cls-1" d="M145.44,23.49a4.08,4.08,0,0,1-.35-.73,1.94,1.94,0,0,1-.14-.63.82.82,0,0,1,.42-.64,4.36,4.36,0,0,1,1.08-.53,8.53,8.53,0,0,1,1.47-.36,10,10,0,0,1,1.59-.13,7.3,7.3,0,0,1,2.21.29,3.38,3.38,0,0,1,1.43.86,3.19,3.19,0,0,1,.77,1.43,8,8,0,0,1,.22,2v5.13a7,7,0,0,0,.05,1,1,1,0,0,0,.2.52.68.68,0,0,0,.39.22,3.17,3.17,0,0,0,.64.05v1a3.58,3.58,0,0,1-.57.13,4.63,4.63,0,0,1-.7.05,2.9,2.9,0,0,1-1.41-.33,1.42,1.42,0,0,1-.7-1.16,5.94,5.94,0,0,1-1.56,1.11,5.39,5.39,0,0,1-2.4.46,6.17,6.17,0,0,1-1.37-.16,3.27,3.27,0,0,1-1.25-.57,3.2,3.2,0,0,1-.93-1.12,3.89,3.89,0,0,1-.36-1.8,3.42,3.42,0,0,1,.69-2.21A4.92,4.92,0,0,1,146.56,26a7.64,7.64,0,0,1,2.18-.68,16.77,16.77,0,0,1,2.12-.21h.55l.55,0v-.39a2.56,2.56,0,0,0-.56-1.79,2.89,2.89,0,0,0-2.15-.61,5.73,5.73,0,0,0-2,.3,7.1,7.1,0,0,0-1.56.82ZM152,26.83h-.76a14.18,14.18,0,0,0-1.69.1,6.08,6.08,0,0,0-1.56.39,2.93,2.93,0,0,0-1.15.81,2,2,0,0,0-.44,1.33,2.18,2.18,0,0,0,.47,1.38,2.11,2.11,0,0,0,1.75.6,4.22,4.22,0,0,0,1.29-.2,4.94,4.94,0,0,0,1.08-.48,2.86,2.86,0,0,0,.74-.62,1.06,1.06,0,0,0,.27-.65Z"/><path class="cls-1" d="M158.13,20.7l.33,0h.17a1.79,1.79,0,0,1,1.11.33,1.48,1.48,0,0,1,.53,1,5.2,5.2,0,0,1,1.58-1.08,5.41,5.41,0,0,1,2.31-.46,5.34,5.34,0,0,1,1,.09,4.73,4.73,0,0,1,1,.29,3.57,3.57,0,0,1,.86.51,2.49,2.49,0,0,1,.63.73,5.14,5.14,0,0,1,1.63-1.13,5.5,5.5,0,0,1,2.36-.48,4,4,0,0,1,2.64.78,3.49,3.49,0,0,1,1.19,2,5.77,5.77,0,0,1,.16,1.16q0,.64,0,1.24V33h-2.21V25.68c0-.33,0-.65,0-1a3,3,0,0,0-.14-.85,1.76,1.76,0,0,0-.73-1,3.17,3.17,0,0,0-1.72-.36,3.59,3.59,0,0,0-1.6.36,3.3,3.3,0,0,0-1.11.81q.05.44.08.93t0,1V33h-2.21V25.68a9.75,9.75,0,0,0-.05-1,4.21,4.21,0,0,0-.18-.87q-.44-1.3-2.35-1.3a3.92,3.92,0,0,0-1.11.16,3.79,3.79,0,0,0-1,.42,2.66,2.66,0,0,0-.68.59,1,1,0,0,0-.26.64V33h-2.21Z"/><path class="cls-1" d="M179.86,23.49a4.08,4.08,0,0,1-.35-.73,1.94,1.94,0,0,1-.14-.63.82.82,0,0,1,.42-.64,4.36,4.36,0,0,1,1.08-.53,8.53,8.53,0,0,1,1.47-.36,10,10,0,0,1,1.59-.13,7.3,7.3,0,0,1,2.21.29,3.38,3.38,0,0,1,1.43.86,3.19,3.19,0,0,1,.77,1.43,8,8,0,0,1,.22,2v5.13a7,7,0,0,0,.05,1,1,1,0,0,0,.2.52.68.68,0,0,0,.39.22,3.17,3.17,0,0,0,.64.05v1a3.58,3.58,0,0,1-.57.13,4.63,4.63,0,0,1-.7.05,2.9,2.9,0,0,1-1.41-.33,1.42,1.42,0,0,1-.7-1.16,5.94,5.94,0,0,1-1.56,1.11,5.39,5.39,0,0,1-2.4.46,6.17,6.17,0,0,1-1.37-.16,3.27,3.27,0,0,1-1.25-.57,3.2,3.2,0,0,1-.93-1.12,3.89,3.89,0,0,1-.36-1.8,3.42,3.42,0,0,1,.69-2.21A4.92,4.92,0,0,1,181,26a7.64,7.64,0,0,1,2.18-.68,16.77,16.77,0,0,1,2.12-.21h.55l.55,0v-.39a2.56,2.56,0,0,0-.56-1.79,2.89,2.89,0,0,0-2.15-.61,5.73,5.73,0,0,0-2,.3,7.1,7.1,0,0,0-1.56.82Zm6.54,3.34h-.76a14.18,14.18,0,0,0-1.69.1,6.08,6.08,0,0,0-1.56.39,2.93,2.93,0,0,0-1.15.81,2,2,0,0,0-.44,1.33,2.18,2.18,0,0,0,.47,1.38,2.11,2.11,0,0,0,1.75.6,4.22,4.22,0,0,0,1.29-.2,4.94,4.94,0,0,0,1.08-.48,2.86,2.86,0,0,0,.74-.62,1.06,1.06,0,0,0,.27-.65Z"/><path class="cls-1" d="M192.52,19.4a5.45,5.45,0,0,1,1.17-3.8,4.37,4.37,0,0,1,3.39-1.28,5.73,5.73,0,0,1,1.49.18,5.44,5.44,0,0,1,1.16.44,2.64,2.64,0,0,1,.74.56.88.88,0,0,1,.26.56,1.39,1.39,0,0,1-.21.72,5.24,5.24,0,0,1-.44.64h-.34a3.3,3.3,0,0,0-1.08-.87,3.14,3.14,0,0,0-1.45-.33,2.5,2.5,0,0,0-1.82.64,3,3,0,0,0-.65,2.2v1.69h4.38v1.9h-4.38V33h-2.21Z"/><path class="cls-1" d="M204.85,33H204l-4.22-12.09a3.34,3.34,0,0,1,1.15-.21,1.48,1.48,0,0,1,1.09.42,2.62,2.62,0,0,1,.63,1.07L205.47,31l2.87-8.65a4.4,4.4,0,0,1,.21-.59,2.26,2.26,0,0,1,.35-.56,1.59,1.59,0,0,1,1.29-.57,2,2,0,0,1,1,.23l-4.74,13.78q-.29.83-.63,1.59A5.17,5.17,0,0,1,205,37.6a3.73,3.73,0,0,1-1.21.9,4,4,0,0,1-1.73.34,4.19,4.19,0,0,1-1.65-.29.94.94,0,0,1-.66-.89,1.68,1.68,0,0,1,.2-.76,4.78,4.78,0,0,1,.4-.68,4.18,4.18,0,0,0,.64.43,2.14,2.14,0,0,0,1.08.25,1.82,1.82,0,0,0,1.47-.68,6.3,6.3,0,0,0,1-2.08Z"/></g></g></svg>