<svg xmlns="http://www.w3.org/2000/svg" viewBox="0 0 219.95 132.92"><defs><style>.cls-1{fill:#7e459a;}.cls-2{fill:#fff;}</style></defs><title>logo-vertical</title><g id="Layer_2" data-name="Layer 2"><g id="Layer_1-2" data-name="Layer 1"><circle class="cls-1" cx="109.97" cy="39.75" r="39.75"/><path class="cls-2" d="M95.74,45.74A6.07,6.07,0,0,0,95,42.43a2.71,2.71,0,0,0-2.45-1.23V37.87a2.64,2.64,0,0,0,2.5-1.3A7.21,7.21,0,0,0,95.74,33V27.78a11.09,11.09,0,0,1,.42-3.1,6.66,6.66,0,0,1,1.3-2.48,5.92,5.92,0,0,1,2.22-1.62,8.17,8.17,0,0,1,3.24-.58,2.17,2.17,0,0,1,1.25.35,1.38,1.38,0,0,1,.51,1.23q0,.28,0,.72a7.37,7.37,0,0,1-.19,1,13.25,13.25,0,0,0-1.81.12,3.85,3.85,0,0,0-1.48.51,2.76,2.76,0,0,0-1,1.09,3.94,3.94,0,0,0-.37,1.85v6.9a8.69,8.69,0,0,1-.65,3.54,4.51,4.51,0,0,1-2.31,2.24,4,4,0,0,1,2.36,2.52,12.33,12.33,0,0,1,.6,4v6.62a3.75,3.75,0,0,0,.39,1.85,2.94,2.94,0,0,0,1,1.09,3.85,3.85,0,0,0,1.48.51,12.88,12.88,0,0,0,1.76.12,8.91,8.91,0,0,1,.19,1,7.48,7.48,0,0,1,0,.76,1.19,1.19,0,0,1-.6,1.2,3.4,3.4,0,0,1-1.44.28,7.72,7.72,0,0,1-3.31-.62,6.13,6.13,0,0,1-2.13-1.6,5.66,5.66,0,0,1-1.13-2.18,9.22,9.22,0,0,1-.32-2.41Z"/><path class="cls-2" d="M124.21,52.68a9.27,9.27,0,0,1-.32,2.41,5.67,5.67,0,0,1-1.13,2.18,6.15,6.15,0,0,1-2.13,1.6,7.73,7.73,0,0,1-3.31.62,3.4,3.4,0,0,1-1.43-.28,1.19,1.19,0,0,1-.6-1.2,7.32,7.32,0,0,1,0-.76,8.65,8.65,0,0,1,.19-1,13,13,0,0,0,1.74-.12,3.88,3.88,0,0,0,1.5-.51,3,3,0,0,0,1-1.09,3.75,3.75,0,0,0,.39-1.85V46a12.31,12.31,0,0,1,.6-4,4,4,0,0,1,2.36-2.52,4.5,4.5,0,0,1-2.31-2.24,8.68,8.68,0,0,1-.65-3.54v-6.9a4,4,0,0,0-.37-1.85,2.78,2.78,0,0,0-1-1.09,3.85,3.85,0,0,0-1.48-.51,13.24,13.24,0,0,0-1.8-.12,7.18,7.18,0,0,1-.19-1,7,7,0,0,1,0-.72,1.38,1.38,0,0,1,.51-1.23A2.17,2.17,0,0,1,117,20a8.21,8.21,0,0,1,3.22.58,5.89,5.89,0,0,1,2.24,1.62,6.67,6.67,0,0,1,1.3,2.48,11.09,11.09,0,0,1,.42,3.1V33a7.21,7.21,0,0,0,.74,3.56,2.64,2.64,0,0,0,2.5,1.3v3.33A2.71,2.71,0,0,0,125,42.43a6.07,6.07,0,0,0-.79,3.31Z"/><path class="cls-1" d="M0,105.8l.49,0H.7a3,3,0,0,1,1.62.45,2,2,0,0,1,.88,1.5,5.69,5.69,0,0,1,1.64-1.54,4.49,4.49,0,0,1,2.53-.72,5.84,5.84,0,0,1,.92.08,4.19,4.19,0,0,1,.92.25,1.84,1.84,0,0,1,.7.49,1.2,1.2,0,0,1,.27.82,3.41,3.41,0,0,1-.31,1.34,7.72,7.72,0,0,1-.62,1.19,3.91,3.91,0,0,0-1.09-.72,3.74,3.74,0,0,0-1.48-.25,3.8,3.8,0,0,0-2.34.8,3,3,0,0,0-.74.84,1.91,1.91,0,0,0-.27,1v12.94H0Z"/><path class="cls-1" d="M15,115.66a7.65,7.65,0,0,0,1.5,4.58A5.13,5.13,0,0,0,20.77,122a7.43,7.43,0,0,0,1.95-.23,7.19,7.19,0,0,0,1.48-.57,4.6,4.6,0,0,0,1-.72q.41-.39.68-.7a8,8,0,0,1,.76,1.17,2.31,2.31,0,0,1,.33,1,1.27,1.27,0,0,1-.2.64,2.48,2.48,0,0,1-.66.68,7.9,7.9,0,0,1-2.3,1.11,11.25,11.25,0,0,1-3.39.45,11.09,11.09,0,0,1-3.45-.53,7.21,7.21,0,0,1-2.82-1.69,8.09,8.09,0,0,1-1.91-3.06,13.34,13.34,0,0,1-.7-4.62,11.36,11.36,0,0,1,.72-4.25,8.51,8.51,0,0,1,1.89-2.94,7.36,7.36,0,0,1,2.67-1.7,9,9,0,0,1,3.1-.55,8,8,0,0,1,3.41.66,6.39,6.39,0,0,1,2.32,1.77A7.35,7.35,0,0,1,27,110.45a10.71,10.71,0,0,1,.43,3c0,.36,0,.73,0,1.11a9.33,9.33,0,0,1-.1,1.07Zm9.12-2.49a8.36,8.36,0,0,0-.21-1.95,4.3,4.3,0,0,0-.72-1.58,3.47,3.47,0,0,0-1.35-1.07,4.83,4.83,0,0,0-2-.39,4.47,4.47,0,0,0-3.33,1.33A5.54,5.54,0,0,0,15,113.16Z"/><path class="cls-1" d="M32,105.8l.49,0h.25a3,3,0,0,1,1.62.43,2.19,2.19,0,0,1,.92,1.44,6.05,6.05,0,0,1,2.07-1.54,7.57,7.57,0,0,1,3.31-.64,8.07,8.07,0,0,1,2.87.51,6.21,6.21,0,0,1,2.38,1.62,7.93,7.93,0,0,1,1.64,2.88,13.57,13.57,0,0,1,.6,4.34,14,14,0,0,1-.72,4.85,8.27,8.27,0,0,1-1.87,3.06,6.59,6.59,0,0,1-2.55,1.6,8.6,8.6,0,0,1-2.73.47,6.47,6.47,0,0,1-3.31-.72,5.65,5.65,0,0,1-1.64-1.31v9.86H32Zm3.31,14a5.4,5.4,0,0,0,.62.68,4.52,4.52,0,0,0,1,.68,7.27,7.27,0,0,0,1.29.55,5,5,0,0,0,1.54.23,4.13,4.13,0,0,0,3.66-1.77A9.17,9.17,0,0,0,44.58,115a13.37,13.37,0,0,0-.25-2.65,6.41,6.41,0,0,0-.82-2.14A4.11,4.11,0,0,0,42,108.78a4.83,4.83,0,0,0-2.36-.53,5.69,5.69,0,0,0-3.1.78,2.23,2.23,0,0,0-1.23,1.87Z"/><path class="cls-1" d="M53,105.8l.49,0h.21a3,3,0,0,1,1.62.45,2,2,0,0,1,.88,1.5,5.69,5.69,0,0,1,1.64-1.54,4.49,4.49,0,0,1,2.53-.72,5.84,5.84,0,0,1,.92.08,4.19,4.19,0,0,1,.92.25,1.84,1.84,0,0,1,.7.49,1.2,1.2,0,0,1,.27.82,3.41,3.41,0,0,1-.31,1.34,7.72,7.72,0,0,1-.62,1.19,3.91,3.91,0,0,0-1.09-.72,3.93,3.93,0,0,0-3.82.55,3,3,0,0,0-.74.84,1.91,1.91,0,0,0-.27,1v12.94H53Z"/><path class="cls-1" d="M81.72,115a14.34,14.34,0,0,1-.47,3.68,8.88,8.88,0,0,1-1.5,3.14A7.48,7.48,0,0,1,77.08,124a8.81,8.81,0,0,1-4,.82,9.1,9.1,0,0,1-3.94-.78,7.2,7.2,0,0,1-2.65-2.08A8.46,8.46,0,0,1,65,118.83a14.72,14.72,0,0,1-.47-3.76,12.39,12.39,0,0,1,.54-3.7,8.78,8.78,0,0,1,1.64-3.06,8,8,0,0,1,2.71-2.08,8.66,8.66,0,0,1,3.8-.78,8.85,8.85,0,0,1,3.88.78,7.25,7.25,0,0,1,2.63,2.08,8.5,8.5,0,0,1,1.48,3A13.69,13.69,0,0,1,81.72,115Zm-3.51,0a13.47,13.47,0,0,0-.21-2.4,6.68,6.68,0,0,0-.76-2.14,4.21,4.21,0,0,0-1.52-1.54,4.87,4.87,0,0,0-2.53-.58,4.81,4.81,0,0,0-2.48.58,4.49,4.49,0,0,0-1.58,1.54,6.78,6.78,0,0,0-.84,2.14A11.44,11.44,0,0,0,68,115a14.11,14.11,0,0,0,.21,2.44,6.81,6.81,0,0,0,.8,2.24,4.88,4.88,0,0,0,1.56,1.66,4.44,4.44,0,0,0,2.49.64,4.72,4.72,0,0,0,2.57-.64,4.48,4.48,0,0,0,1.56-1.64,7.13,7.13,0,0,0,.76-2.24A14.44,14.44,0,0,0,78.21,115Z"/><path class="cls-1" d="M98.44,122.63q-.31.31-.78.7a5.43,5.43,0,0,1-1.11.7,8,8,0,0,1-1.46.53,7.09,7.09,0,0,1-1.79.21,8.54,8.54,0,0,1-2.92-.51,6.44,6.44,0,0,1-2.47-1.62,7.76,7.76,0,0,1-1.7-2.92,13.68,13.68,0,0,1-.62-4.42,14.09,14.09,0,0,1,.62-4.44,8.71,8.71,0,0,1,1.68-3.06A6.7,6.7,0,0,1,90.33,106a7.63,7.63,0,0,1,3-.58,7.44,7.44,0,0,1,3.1.57,6.61,6.61,0,0,1,2,1.42,1.87,1.87,0,0,1,.9-1.27,2.7,2.7,0,0,1,1.36-.41h.43a2.3,2.3,0,0,1,.54.08V122.9a19.68,19.68,0,0,1-.41,4.23,7.67,7.67,0,0,1-1.42,3.14,6.4,6.4,0,0,1-2.73,2,11.81,11.81,0,0,1-4.33.68,12.87,12.87,0,0,1-3.21-.35,9.39,9.39,0,0,1-2.24-.86,3.59,3.59,0,0,1-1-.82,1.35,1.35,0,0,1-.29-.82,2,2,0,0,1,.45-1.13,11.79,11.79,0,0,1,.8-1,2.87,2.87,0,0,0,.51.45,8.62,8.62,0,0,0,1.15.72,9,9,0,0,0,1.7.68,7.43,7.43,0,0,0,2.14.29,7.06,7.06,0,0,0,3-.53,4,4,0,0,0,1.71-1.48,5.57,5.57,0,0,0,.78-2.26,22,22,0,0,0,.18-2.9Zm-.08-12.35h0c-.16-.16-.36-.34-.6-.57a5.87,5.87,0,0,0-.93-.66,5.74,5.74,0,0,0-1.31-.55,6.05,6.05,0,0,0-1.68-.21,4.2,4.2,0,0,0-3.51,1.66,8,8,0,0,0-1.29,5,15.81,15.81,0,0,0,.23,2.81,6.47,6.47,0,0,0,.82,2.24,4.11,4.11,0,0,0,1.54,1.48A4.83,4.83,0,0,0,94,122a6.17,6.17,0,0,0,1.74-.23,5.92,5.92,0,0,0,1.38-.58,2.76,2.76,0,0,0,.9-.82,1.68,1.68,0,0,0,.31-.94Z"/><path class="cls-1" d="M107.44,105.8l.49,0h.21a3,3,0,0,1,1.62.45,2,2,0,0,1,.88,1.5,5.69,5.69,0,0,1,1.64-1.54,4.49,4.49,0,0,1,2.53-.72,5.84,5.84,0,0,1,.92.08,4.19,4.19,0,0,1,.92.25,1.84,1.84,0,0,1,.7.49,1.2,1.2,0,0,1,.27.82,3.41,3.41,0,0,1-.31,1.34,7.72,7.72,0,0,1-.62,1.19,3.91,3.91,0,0,0-1.09-.72,3.93,3.93,0,0,0-3.82.55,3,3,0,0,0-.74.84,1.91,1.91,0,0,0-.27,1v12.94h-3.31Z"/><path class="cls-1" d="M121.66,110a6.1,6.1,0,0,1-.53-1.09,2.9,2.9,0,0,1-.21-.94,1.23,1.23,0,0,1,.62-1,6.52,6.52,0,0,1,1.62-.8,12.76,12.76,0,0,1,2.2-.55,15,15,0,0,1,2.38-.19,10.92,10.92,0,0,1,3.31.43,5.06,5.06,0,0,1,2.14,1.29,4.78,4.78,0,0,1,1.15,2.14,11.94,11.94,0,0,1,.33,3v7.68a10.47,10.47,0,0,0,.08,1.46,1.54,1.54,0,0,0,.29.78,1,1,0,0,0,.58.33,4.73,4.73,0,0,0,1,.08v1.56a5.36,5.36,0,0,1-.86.19,6.93,6.93,0,0,1-1.05.08,4.34,4.34,0,0,1-2.1-.49,2.12,2.12,0,0,1-1.05-1.73,8.88,8.88,0,0,1-2.34,1.66,8.06,8.06,0,0,1-3.59.68,9.22,9.22,0,0,1-2-.23,4.9,4.9,0,0,1-1.87-.86,4.78,4.78,0,0,1-1.38-1.68,5.82,5.82,0,0,1-.54-2.69,5.12,5.12,0,0,1,1-3.31,7.36,7.36,0,0,1,2.55-2,11.43,11.43,0,0,1,3.25-1,25.08,25.08,0,0,1,3.18-.31h.82a7.62,7.62,0,0,1,.82,0v-.58a3.82,3.82,0,0,0-.84-2.67q-.84-.91-3.21-.92a8.57,8.57,0,0,0-3,.45,10.62,10.62,0,0,0-2.34,1.23Zm9.78,5h-1.13a21.21,21.21,0,0,0-2.53.16,9.1,9.1,0,0,0-2.34.58,4.38,4.38,0,0,0-1.72,1.21,3,3,0,0,0-.66,2,3.26,3.26,0,0,0,.7,2.07,3.16,3.16,0,0,0,2.61.9,6.31,6.31,0,0,0,1.93-.29,7.39,7.39,0,0,0,1.62-.72,4.28,4.28,0,0,0,1.11-.93,1.58,1.58,0,0,0,.41-1Z"/><path class="cls-1" d="M140.64,105.8l.49,0h.25a2.67,2.67,0,0,1,1.66.49,2.22,2.22,0,0,1,.8,1.5,7.77,7.77,0,0,1,2.36-1.62,8.09,8.09,0,0,1,3.45-.68,8,8,0,0,1,1.44.14,7.07,7.07,0,0,1,1.44.43,5.35,5.35,0,0,1,1.29.76,3.73,3.73,0,0,1,.93,1.09,7.69,7.69,0,0,1,2.44-1.69,8.22,8.22,0,0,1,3.53-.72,6,6,0,0,1,4,1.17,5.22,5.22,0,0,1,1.77,2.92,8.63,8.63,0,0,1,.23,1.73q0,1,0,1.85v11.07H163.4v-11c0-.49,0-1,0-1.42a4.44,4.44,0,0,0-.21-1.27,2.63,2.63,0,0,0-1.09-1.56,4.74,4.74,0,0,0-2.57-.55,5.36,5.36,0,0,0-2.4.55,4.93,4.93,0,0,0-1.66,1.21q.08.66.12,1.38t0,1.5v11.11h-3.31v-11a14.59,14.59,0,0,0-.08-1.54,6.3,6.3,0,0,0-.27-1.31q-.66-1.95-3.51-1.95a5.86,5.86,0,0,0-1.66.23,5.66,5.66,0,0,0-1.42.62,4,4,0,0,0-1,.88,1.54,1.54,0,0,0-.39,1v13.06h-3.31Z"/><path class="cls-1" d="M173.14,110a6.1,6.1,0,0,1-.53-1.09,2.9,2.9,0,0,1-.21-.94,1.23,1.23,0,0,1,.62-1,6.52,6.52,0,0,1,1.62-.8,12.76,12.76,0,0,1,2.2-.55,15,15,0,0,1,2.38-.19,10.92,10.92,0,0,1,3.31.43,5.06,5.06,0,0,1,2.14,1.29,4.78,4.78,0,0,1,1.15,2.14,11.94,11.94,0,0,1,.33,3v7.68a10.47,10.47,0,0,0,.08,1.46,1.54,1.54,0,0,0,.29.78,1,1,0,0,0,.58.33,4.73,4.73,0,0,0,1,.08v1.56a5.36,5.36,0,0,1-.86.19,6.93,6.93,0,0,1-1.05.08,4.34,4.34,0,0,1-2.1-.49A2.12,2.12,0,0,1,183,122.2a8.88,8.88,0,0,1-2.34,1.66,8.06,8.06,0,0,1-3.59.68,9.22,9.22,0,0,1-2-.23,4.9,4.9,0,0,1-1.87-.86,4.78,4.78,0,0,1-1.38-1.68,5.82,5.82,0,0,1-.54-2.69,5.12,5.12,0,0,1,1-3.31,7.36,7.36,0,0,1,2.55-2,11.43,11.43,0,0,1,3.25-1,25.08,25.08,0,0,1,3.18-.31h.82a7.62,7.62,0,0,1,.82,0v-.58a3.82,3.82,0,0,0-.84-2.67q-.84-.91-3.21-.92a8.57,8.57,0,0,0-3,.45,10.62,10.62,0,0,0-2.34,1.23Zm9.78,5h-1.13a21.21,21.21,0,0,0-2.53.16,9.1,9.1,0,0,0-2.34.58,4.38,4.38,0,0,0-1.72,1.21,3,3,0,0,0-.66,2,3.26,3.26,0,0,0,.7,2.07,3.16,3.16,0,0,0,2.61.9,6.31,6.31,0,0,0,1.93-.29,7.39,7.39,0,0,0,1.62-.72,4.28,4.28,0,0,0,1.11-.93,1.58,1.58,0,0,0,.41-1Z"/><path class="cls-1" d="M192.08,103.85q0-3.78,1.75-5.69a6.53,6.53,0,0,1,5.07-1.91,8.57,8.57,0,0,1,2.22.27,8.14,8.14,0,0,1,1.73.66A4,4,0,0,1,204,98a1.32,1.32,0,0,1,.39.84,2.08,2.08,0,0,1-.31,1.07,7.84,7.84,0,0,1-.66,1h-.51a4.94,4.94,0,0,0-1.62-1.3,4.69,4.69,0,0,0-2.16-.49,3.73,3.73,0,0,0-2.73,1,4.51,4.51,0,0,0-1,3.29v2.53h6.55v2.84H195.4v15.47h-3.31Z"/><path class="cls-1" d="M210.52,124.15h-1.32l-6.31-18.08a5,5,0,0,1,1.71-.31,2.22,2.22,0,0,1,1.64.62,3.92,3.92,0,0,1,.93,1.6l4.29,13.29,4.29-12.94a6.57,6.57,0,0,1,.31-.88,3.37,3.37,0,0,1,.53-.84,2.38,2.38,0,0,1,1.93-.86,3,3,0,0,1,1.44.35l-7.09,20.62q-.43,1.25-.94,2.38a7.73,7.73,0,0,1-1.25,2,5.58,5.58,0,0,1-1.81,1.35,6,6,0,0,1-2.59.51,6.27,6.27,0,0,1-2.47-.43,1.4,1.4,0,0,1-1-1.32,2.51,2.51,0,0,1,.29-1.13,7.15,7.15,0,0,1,.6-1,6.25,6.25,0,0,0,1,.64,3.2,3.2,0,0,0,1.62.37,2.72,2.72,0,0,0,2.2-1,9.41,9.41,0,0,0,1.5-3.12Z"/></g></g></svg>